<?xml version="1.0" encoding="utf-8"?>
<!-- Generator: Adobe Illustrator 15.0.2, SVG Export Plug-In . SVG Version: 6.00 Build 0)  -->
<!DOCTYPE svg PUBLIC "-//W3C//DTD SVG 1.1//EN" "http://www.w3.org/Graphics/SVG/1.1/DTD/svg11.dtd">
<svg version="1.1" id="Layer_1" xmlns="http://www.w3.org/2000/svg" xmlns:xlink="http://www.w3.org/1999/xlink" x="0px" y="0px"
	 width="280.01px" height="37.232px" viewBox="0 0 280.01 37.232" enable-background="new 0 0 280.01 37.232" xml:space="preserve">
<g>
	<g>
		<path d="M46.458,22.776c0-1.031-0.353-1.217-1.169-1.236c-0.575-0.021-0.724-0.104-0.724-0.31c0-0.269,0.093-0.269,0.834-0.269
			c0.315,0,0.835,0.082,2.078,0.082c0.296,0,2.078-0.082,2.356-0.082c0.074,0,0.297,0,0.297,0.248c0,0.227-0.186,0.287-0.687,0.33
			c-0.891,0.061-0.928,0.391-0.928,1.277v0.206c0,0.207,0.056,0.907,0.056,2.082c0,0.929,0,0.989-0.538,1.3
			c-1.688,1.052-3.45,1.052-3.933,1.052c-5.196,0-6.401-4.474-6.401-6.475c0-3.031,2.282-6.701,7.218-6.701
			c1.724,0,2.819,0.494,2.949,0.639c0.223,0.247,0.39,1.896,0.39,2.083c0,0.268-0.111,0.371-0.223,0.371
			c-0.167,0-0.315-0.186-0.445-0.475c-0.298-0.619-1.021-2.083-3.06-2.083c-2.858,0-4.491,3.464-4.491,6.247
			c0,3.011,1.707,5.876,4.491,5.876c1.705,0,1.929-0.658,1.929-2.37V22.776z"/>
	</g>
	<g>
		<path d="M54.621,16.508c0-0.845,0-1.402-0.928-1.464c-0.408-0.021-0.668-0.041-0.668-0.351c0-0.289,0.241-0.289,0.371-0.289
			c0.037,0,0.056,0.021,0.464,0.042s1.207,0.042,2.783,0.042h0.891c1.912,0,2.858-0.021,3.359-0.042
			c0.482-0.021,0.501-0.042,0.557-0.042c0.223,0,0.223,0.166,0.223,0.64v1.897c0,0.103,0,0.35-0.186,0.35
			c-0.204,0-0.241-0.083-0.575-0.845c-0.223-0.536-0.668-1.319-3.303-1.319c-0.929,0-1.002,0.144-1.002,1.175v2.99
			c0,0.66,0,0.824,1.075,0.824c2.061,0,2.228-0.453,2.562-1.546c0.093-0.268,0.186-0.309,0.278-0.309
			c0.111,0,0.204,0.062,0.204,0.289c0,0.289-0.13,2.413-0.13,2.866c0,0.145,0.056,0.867,0.056,1.031c0,0.124,0,0.412-0.223,0.412
			c-0.148,0-0.26-0.104-0.353-0.495c-0.39-1.587-0.909-1.608-2.431-1.608c-0.891,0-1.039,0-1.039,0.619v3.547
			c0,1.465,0.389,1.69,1.947,1.69c0.817,0,1.968,0,2.784-1.753c0.334-0.721,0.371-0.805,0.538-0.805s0.223,0.188,0.223,0.311
			c0,0.268-0.204,1.588-0.26,2.351c-0.019,0.391-0.204,0.618-0.742,0.618c-0.946,0-2.246-0.021-3.321-0.041
			c-1.058-0.021-1.931-0.042-2.042-0.042h-0.223c-0.761,0-1.225,0.021-1.521,0.042s-0.445,0.041-0.575,0.041
			c-0.148,0-0.39,0-0.39-0.309c0-0.289,0.278-0.31,0.668-0.352c0.928-0.062,0.928-0.619,0.928-1.464V16.508z"/>
	</g>
	<g>
		<path d="M66.925,16.487c0-0.845,0-1.402-0.91-1.464c-0.407-0.02-0.667-0.041-0.667-0.33c0-0.289,0.073-0.289,0.686-0.289
			c0.187,0,1.096,0.083,1.318,0.083c0.501,0,2.969-0.083,3.525-0.083c3.284,0,3.563,2.516,3.563,3.238
			c0,2.411-1.911,2.907-2.543,3.052c0.241,0.164,0.464,0.288,0.892,1.154l1.8,3.547c0.371,0.721,0.631,1.236,1.15,1.319
			c0.612,0.081,0.761,0.104,0.761,0.37c0,0.228-0.186,0.248-0.315,0.248c-0.241,0-1.447-0.083-1.726-0.083
			c-0.148,0-0.836,0.083-1.003,0.083c-0.334,0-0.407-0.186-0.612-0.618l-2.245-4.702c-0.408-0.886-0.501-0.969-1.336-0.969
			c-0.315,0-0.353,0.124-0.353,0.475v3.711c0,0.865,0,1.423,0.928,1.485c0.408,0.021,0.668,0.041,0.668,0.351
			c0,0.288-0.241,0.268-0.39,0.268c-0.353,0-2.152-0.083-2.227-0.083c-0.316,0-1.818,0.083-2.152,0.083
			c-0.148,0-0.39,0.021-0.39-0.289c0-0.288,0.278-0.309,0.667-0.329c0.91-0.083,0.91-0.62,0.91-1.485V16.487z M68.91,19.745
			c0,0.722,0,0.764,0.928,0.764c0.668,0,2.505,0,2.505-2.578c0-0.742-0.26-2.948-2.561-2.948c-0.854,0-0.872,0.494-0.872,1.298
			V19.745z"/>
		<path d="M80.434,16.487c0-0.845,0-1.402-0.909-1.464c-0.408-0.02-0.668-0.041-0.668-0.33c0-0.289,0.074-0.289,0.687-0.289
			c0.186,0,1.096,0.083,1.317,0.083c0.501,0,2.97-0.083,3.526-0.083c3.284,0,3.562,2.516,3.562,3.238
			c0,2.411-1.911,2.907-2.542,3.052c0.241,0.164,0.464,0.288,0.891,1.154l1.801,3.547c0.37,0.721,0.63,1.236,1.15,1.319
			c0.611,0.081,0.761,0.104,0.761,0.37c0,0.228-0.187,0.248-0.316,0.248c-0.241,0-1.447-0.083-1.725-0.083
			c-0.149,0-0.836,0.083-1.003,0.083c-0.334,0-0.408-0.186-0.612-0.618l-2.245-4.702c-0.408-0.886-0.501-0.969-1.337-0.969
			c-0.315,0-0.352,0.124-0.352,0.475v3.711c0,0.865,0,1.423,0.928,1.485c0.408,0.021,0.667,0.041,0.667,0.351
			c0,0.288-0.241,0.268-0.389,0.268c-0.354,0-2.153-0.083-2.227-0.083c-0.316,0-1.819,0.083-2.153,0.083
			c-0.148,0-0.39,0.021-0.39-0.289c0-0.288,0.278-0.309,0.668-0.329c0.909-0.083,0.909-0.62,0.909-1.485V16.487z M82.42,19.745
			c0,0.722,0,0.764,0.928,0.764c0.667,0,2.505,0,2.505-2.578c0-0.742-0.26-2.948-2.562-2.948c-0.854,0-0.871,0.494-0.871,1.298
			V19.745z"/>
		<path d="M95.929,25.209c0,0.866,0,1.423,0.928,1.485c0.408,0.021,0.668,0.041,0.668,0.35c0,0.289-0.241,0.289-0.39,0.289
			c-0.39,0-1.002-0.083-2.227-0.083c-1.058,0-1.986,0.083-2.172,0.083c-0.147,0-0.39,0-0.39-0.309c0-0.289,0.278-0.31,0.668-0.33
			c0.928-0.083,0.928-0.619,0.928-1.465v-8.701c0-0.866,0-1.402-0.928-1.484c-0.408-0.021-0.668-0.041-0.668-0.351
			c0-0.289,0.242-0.289,0.39-0.289c0.39,0,1.058,0.083,2.189,0.083c1.337,0,1.931-0.083,2.209-0.083c0.148,0,0.39,0,0.39,0.309
			c0,0.29-0.278,0.31-0.668,0.331c-0.928,0.083-0.928,0.619-0.928,1.422V25.209z"/>
		<path d="M104.112,27.457c-1.448,0-2.617-0.558-2.95-0.825c-0.205-0.165-0.224-0.453-0.224-0.969c0-0.082,0-1.113,0.056-1.855
			c0-0.083,0.019-0.371,0.241-0.371c0.167,0,0.224,0.164,0.26,0.35c0.354,1.836,1.615,3.135,2.933,3.135
			c0.779,0,2.208-0.619,2.208-2.289c0-1.608-1.262-2.391-2.598-3.072c-1.504-0.742-2.97-1.547-2.97-3.732
			c0-1.896,1.299-3.546,3.656-3.546c1.076,0,2.171,0.33,2.431,0.474c0.223,0.145,0.223,0.33,0.223,2.145c0,0.454,0,0.619-0.26,0.619
			c-0.186,0-0.26-0.124-0.445-0.763c-0.223-0.804-0.557-1.979-2.097-1.979c-1.522,0-2.023,1.176-2.023,1.979
			c0,1.464,1.077,1.979,2.562,2.66c1.039,0.494,2.987,1.505,2.987,3.836C108.102,25.538,106.58,27.457,104.112,27.457z"/>
		<path d="M114.968,19.415c0,0.619,0,0.619,0.594,0.619h4.008c0.613,0,0.668,0,0.668-0.639v-2.887c0-0.845,0-1.402-0.909-1.464
			c-0.408-0.041-0.668-0.062-0.668-0.351c0-0.289,0.26-0.289,0.427-0.289c0.595,0,1.169,0.083,2.135,0.083
			c0.891,0,1.521-0.083,2.189-0.083c0.148,0,0.39,0,0.39,0.289c0,0.29-0.278,0.31-0.649,0.351c-0.928,0.062-0.928,0.598-0.928,1.443
			v8.722c0,0.866,0,1.423,0.928,1.485c0.39,0.021,0.649,0.041,0.649,0.35c0,0.289-0.241,0.289-0.39,0.289
			c-0.315,0-0.891-0.083-2.171-0.083c-1.114,0-1.949,0.083-2.19,0.083c-0.148,0-0.39,0-0.39-0.309c0-0.289,0.278-0.31,0.668-0.33
			c0.909-0.083,0.909-0.619,0.909-1.443v-4c0-0.516-0.093-0.516-0.612-0.516h-3.952c-0.649,0-0.705,0-0.705,0.475v3.999
			c0,0.866,0,1.423,0.909,1.485c0.408,0.021,0.668,0.041,0.668,0.35c0,0.289-0.241,0.289-0.39,0.289
			c-0.278,0-0.779-0.083-2.171-0.083c-1.132,0-1.838,0.083-2.19,0.083c-0.148,0-0.39,0-0.39-0.309c0-0.289,0.26-0.31,0.649-0.33
			c0.929-0.083,0.929-0.619,0.929-1.443v-8.743c0-0.845,0-1.402-0.929-1.464c-0.39-0.041-0.649-0.062-0.649-0.351
			c0-0.289,0.204-0.289,0.428-0.289c0.556,0,1.242,0.083,2.152,0.083c0.928,0,1.633-0.083,2.171-0.083c0.148,0,0.39,0,0.39,0.289
			c0,0.29-0.278,0.31-0.668,0.351c-0.909,0.062-0.909,0.598-0.909,1.443V19.415z"/>
		<path d="M142.877,22.798c0.074,0.102,0.111,0.102,0.13,0.102c0.074,0,0.111-0.041,0.148-0.102l0.631-0.889
			c0.26-0.35,0.575-1.029,0.575-1.318c0-0.413-0.445-0.475-0.705-0.494c-0.52-0.043-0.687-0.104-0.687-0.33
			c0-0.311,0.315-0.311,0.649-0.311c0.538,0,1.374,0.084,1.912,0.084c0.203,0,1.224-0.084,1.465-0.084
			c0.148,0,0.278,0.062,0.278,0.269c0,0.31-0.631,0.351-0.798,0.351c-0.779,0.125-1.688,1.402-1.893,1.69l-0.872,1.237
			c-0.037,0.041-0.26,0.289-0.26,0.453c0,0.084,0.056,0.166,0.186,0.31l0.909,1.134c0.427,0.537,1.485,1.649,2.042,1.753
			c0.705,0.124,0.778,0.144,0.778,0.372c0,0.309-0.296,0.309-0.556,0.309c-0.465,0-2.265-0.083-2.803-0.083
			c-1.299,0-1.299,0.083-1.559,0.083c-0.111,0-0.408,0-0.408-0.289c0-0.205,0.148-0.309,0.538-0.371
			c0.13-0.021,0.353-0.082,0.353-0.287c0-0.146-0.074-0.27-0.223-0.476l-0.445-0.598c-0.056-0.083-0.148-0.165-0.204-0.165
			c-0.074,0-0.13,0.062-0.148,0.082c-1.095,1.094-2.245,2.228-4.176,2.228c-2.394,0-3.284-1.919-3.284-3.3
			c0-1.217,0.427-2.536,3.136-3.979c0.075-0.021,0.242-0.103,0.242-0.226c0-0.124-0.148-0.31-0.224-0.412
			c-0.501-0.682-0.946-1.547-0.946-2.414c0-1.566,1.411-2.845,3.377-2.845c2.116,0,2.988,1.381,2.988,2.536
			c0,0.887-0.278,1.649-2.171,2.35c-0.167,0.062-0.575,0.207-0.575,0.351c0,0.041,0.056,0.124,0.074,0.165L142.877,22.798z
			 M138.164,20.714c-0.186-0.205-0.223-0.268-0.353-0.268c-0.205,0-1.782,1.051-1.782,2.887c0,1.217,0.835,2.824,2.598,2.824
			c1.541,0,2.579-1.402,2.579-1.525c0-0.062-0.073-0.165-0.11-0.227L138.164,20.714z M141.393,16.92
			c0-1.134-0.649-2.124-1.615-2.124c-0.834,0-1.373,0.763-1.373,1.526c0,1.154,1.392,2.743,1.521,2.743
			C140.445,19.065,141.393,18.157,141.393,16.92z"/>
		<path d="M158.836,22.529c-0.558,0-0.558,0-0.705,0.535l-0.631,2.207c0,0.062-0.167,0.618-0.167,0.866
			c0,0.515,0.463,0.557,0.891,0.577c0.482,0.021,0.705,0.081,0.705,0.329c0,0.289-0.223,0.289-0.65,0.289
			c-0.185,0-1.28-0.083-1.818-0.083c-0.204,0-1.299,0.083-1.54,0.083c-0.111,0-0.353,0-0.353-0.309c0-0.269,0.26-0.31,0.557-0.352
			c0.612-0.062,0.78-0.082,1.132-0.804c0.594-1.278,2.228-6.103,3.452-9.67c0.687-2,0.687-2.021,0.872-2.021
			c0.204,0,0.26,0.144,0.537,0.99c0.187,0.577,0.391,1.155,0.539,1.546l2.896,7.836c0.593,1.588,0.779,2.041,1.541,2.165
			c0.314,0.041,0.52,0.081,0.52,0.351c0,0.268-0.316,0.268-0.428,0.268c-0.315,0-1.856-0.083-2.172-0.083
			c-1.132,0-2.097,0.083-2.151,0.083c-0.187,0-0.428,0-0.428-0.289c0-0.268,0.298-0.329,0.668-0.371
			c0.482-0.041,0.649-0.145,0.649-0.453c0-0.206-0.093-0.516-0.13-0.598l-0.798-2.475c-0.204-0.618-0.26-0.618-0.761-0.618H158.836z
			 M160.784,21.787c0.426,0,0.426-0.083,0.426-0.144c0-0.104-0.055-0.27-0.11-0.393l-1.299-3.546l-1.15,3.484
			c-0.019,0.042-0.074,0.248-0.074,0.393c0,0.206,0.11,0.206,0.445,0.206H160.784z"/>
	</g>
	<g>
		<path d="M172.643,27.457c-1.448,0-2.617-0.558-2.95-0.825c-0.205-0.165-0.223-0.453-0.223-0.969c0-0.082,0-1.113,0.056-1.855
			c0-0.083,0.018-0.371,0.24-0.371c0.167,0,0.223,0.164,0.26,0.35c0.353,1.836,1.615,3.135,2.933,3.135
			c0.779,0,2.208-0.619,2.208-2.289c0-1.608-1.262-2.391-2.598-3.072c-1.504-0.742-2.969-1.547-2.969-3.732
			c0-1.896,1.298-3.546,3.655-3.546c1.076,0,2.171,0.33,2.431,0.474c0.223,0.145,0.223,0.33,0.223,2.145c0,0.454,0,0.619-0.26,0.619
			c-0.186,0-0.26-0.124-0.445-0.763c-0.223-0.804-0.557-1.979-2.098-1.979c-1.521,0-2.021,1.176-2.021,1.979
			c0,1.464,1.076,1.979,2.561,2.66c1.039,0.494,2.987,1.505,2.987,3.836C176.632,25.538,175.11,27.457,172.643,27.457z"/>
	</g>
	<g>
		<path d="M184.982,27.457c-1.448,0-2.617-0.558-2.951-0.825c-0.203-0.165-0.222-0.453-0.222-0.969c0-0.082,0-1.113,0.056-1.855
			c0-0.083,0.018-0.371,0.24-0.371c0.167,0,0.223,0.164,0.26,0.35c0.353,1.836,1.615,3.135,2.933,3.135
			c0.779,0,2.208-0.619,2.208-2.289c0-1.608-1.262-2.391-2.598-3.072c-1.504-0.742-2.969-1.547-2.969-3.732
			c0-1.896,1.298-3.546,3.655-3.546c1.076,0,2.171,0.33,2.431,0.474c0.223,0.145,0.223,0.33,0.223,2.145c0,0.454,0,0.619-0.26,0.619
			c-0.186,0-0.26-0.124-0.445-0.763c-0.223-0.804-0.557-1.979-2.098-1.979c-1.521,0-2.021,1.176-2.021,1.979
			c0,1.464,1.076,1.979,2.561,2.66c1.039,0.494,2.987,1.505,2.987,3.836C188.972,25.538,187.45,27.457,184.982,27.457z"/>
		<path d="M198.899,27.457c-3.247,0-6.347-2.681-6.347-6.618c0-3.712,2.802-6.557,6.403-6.557c3.47,0,6.271,2.824,6.271,6.372
			C205.228,24.651,202.054,27.457,198.899,27.457z M198.732,14.817c-2.599,0-3.952,2.66-3.952,5.588c0,3.34,1.763,6.516,4.269,6.516
			c2.598,0,3.952-3.196,3.952-6.186C203.001,18.281,201.684,14.817,198.732,14.817z"/>
	</g>
	<g>
		<path d="M219.479,16.92c0,0.206,0,0.351-0.223,0.351c-0.13,0-0.242-0.042-0.446-0.371c-0.668-1.114-1.354-2.083-3.062-2.083
			c-3.044,0-4.453,3.299-4.453,5.938c0,2.887,1.521,6.186,4.323,6.186c1.707,0,2.523-1.154,3.303-2.742
			c0.038-0.082,0.186-0.391,0.372-0.391c0.277,0,0.277,0.186,0.277,0.33l-0.147,1.752c-0.02,0.289-0.057,0.475-0.446,0.722
			c-0.297,0.207-1.539,0.846-3.414,0.846c-4.694,0-6.755-4.001-6.755-6.618c0-2.867,2.228-6.557,7.07-6.557
			c0.854,0,1.17,0.062,2.432,0.289c0.834,0.165,0.927,0.351,1.001,0.907L219.479,16.92z"/>
	</g>
	<g>
		<path d="M227.124,25.209c0,0.866,0,1.423,0.928,1.485c0.408,0.021,0.668,0.041,0.668,0.35c0,0.289-0.242,0.289-0.39,0.289
			c-0.39,0-1.002-0.083-2.227-0.083c-1.059,0-1.985,0.083-2.171,0.083c-0.149,0-0.39,0-0.39-0.309c0-0.289,0.278-0.31,0.668-0.33
			c0.927-0.083,0.927-0.619,0.927-1.465v-8.701c0-0.866,0-1.402-0.927-1.484c-0.408-0.021-0.668-0.041-0.668-0.351
			c0-0.289,0.24-0.289,0.39-0.289c0.39,0,1.058,0.083,2.189,0.083c1.336,0,1.93-0.083,2.208-0.083c0.147,0,0.39,0,0.39,0.309
			c0,0.29-0.278,0.31-0.668,0.331c-0.928,0.083-0.928,0.619-0.928,1.422V25.209z"/>
	</g>
	<g>
		<path d="M236.013,22.529c-0.557,0-0.557,0-0.704,0.535l-0.632,2.207c0,0.062-0.167,0.618-0.167,0.866
			c0,0.515,0.464,0.557,0.891,0.577c0.482,0.021,0.705,0.081,0.705,0.329c0,0.289-0.223,0.289-0.649,0.289
			c-0.186,0-1.281-0.083-1.818-0.083c-0.204,0-1.299,0.083-1.541,0.083c-0.11,0-0.353,0-0.353-0.309c0-0.269,0.26-0.31,0.558-0.352
			c0.612-0.062,0.779-0.082,1.132-0.804c0.594-1.278,2.227-6.103,3.451-9.67c0.687-2,0.687-2.021,0.872-2.021
			c0.205,0,0.26,0.144,0.539,0.99c0.186,0.577,0.39,1.155,0.537,1.546l2.896,7.836c0.594,1.588,0.779,2.041,1.541,2.165
			c0.314,0.041,0.52,0.081,0.52,0.351c0,0.268-0.316,0.268-0.428,0.268c-0.316,0-1.855-0.083-2.171-0.083
			c-1.133,0-2.098,0.083-2.152,0.083c-0.186,0-0.427,0-0.427-0.289c0-0.268,0.297-0.329,0.667-0.371
			c0.482-0.041,0.649-0.145,0.649-0.453c0-0.206-0.093-0.516-0.13-0.598l-0.797-2.475c-0.205-0.618-0.26-0.618-0.762-0.618H236.013z
			 M237.962,21.787c0.427,0,0.427-0.083,0.427-0.144c0-0.104-0.056-0.27-0.112-0.393l-1.299-3.546l-1.149,3.484
			c-0.02,0.042-0.075,0.248-0.075,0.393c0,0.206,0.112,0.206,0.445,0.206H237.962z"/>
	</g>
	<g>
		<path d="M251.341,25.209c0,0.845,0,1.402,0.927,1.464c0.39,0.021,0.649,0.042,0.649,0.352c0,0.309-0.24,0.309-0.39,0.309
			c-0.612,0-1.576-0.083-2.188-0.083c-0.316,0-1.818,0.083-2.171,0.083c-0.149,0-0.39,0-0.39-0.309c0-0.289,0.26-0.31,0.649-0.352
			c0.927-0.062,0.927-0.619,0.927-1.422v-9.588c0-0.536-0.148-0.536-0.52-0.536c-1.113,0-2.338,0-3.284,1.958
			c-0.167,0.33-0.26,0.412-0.427,0.412c-0.148,0-0.241-0.144-0.241-0.268c0-0.103,0.038-0.226,0.056-0.33l0.76-2.907
			c0.057-0.248,0.112-0.372,0.279-0.372c0.148,0,0.203,0.104,0.223,0.29c0.093,0.556,0.427,0.577,0.835,0.577h5.957
			c1.911,0,2.004-0.268,2.134-0.639c0.056-0.166,0.111-0.289,0.26-0.289c0.26,0,0.26,0.33,0.26,0.824l-0.13,2.516
			c-0.019,0.413-0.056,0.66-0.298,0.66c-0.092,0-0.222-0.021-0.296-0.454c-0.315-1.979-1.224-1.979-2.432-1.979
			c-1.057,0-1.149,0-1.149,0.68V25.209z"/>
	</g>
	<g>
		<path d="M260.99,16.508c0-0.845,0-1.402-0.929-1.464c-0.407-0.021-0.667-0.041-0.667-0.351c0-0.289,0.24-0.289,0.37-0.289
			c0.037,0,0.057,0.021,0.464,0.042c0.409,0.021,1.207,0.042,2.784,0.042h0.891c1.911,0,2.857-0.021,3.359-0.042
			c0.481-0.021,0.5-0.042,0.557-0.042c0.223,0,0.223,0.166,0.223,0.64v1.897c0,0.103,0,0.35-0.187,0.35
			c-0.203,0-0.241-0.083-0.575-0.845c-0.223-0.536-0.667-1.319-3.303-1.319c-0.929,0-1.002,0.144-1.002,1.175v2.99
			c0,0.66,0,0.824,1.075,0.824c2.061,0,2.228-0.453,2.562-1.546c0.092-0.268,0.185-0.309,0.277-0.309
			c0.112,0,0.204,0.062,0.204,0.289c0,0.289-0.13,2.413-0.13,2.866c0,0.145,0.056,0.867,0.056,1.031c0,0.124,0,0.412-0.223,0.412
			c-0.147,0-0.26-0.104-0.353-0.495c-0.39-1.587-0.909-1.608-2.432-1.608c-0.89,0-1.038,0-1.038,0.619v3.547
			c0,1.465,0.39,1.69,1.948,1.69c0.817,0,1.967,0,2.783-1.753c0.335-0.721,0.372-0.805,0.538-0.805c0.167,0,0.224,0.188,0.224,0.311
			c0,0.268-0.204,1.588-0.26,2.351c-0.02,0.391-0.205,0.618-0.743,0.618c-0.945,0-2.244-0.021-3.322-0.041
			c-1.057-0.021-1.929-0.042-2.041-0.042h-0.223c-0.76,0-1.225,0.021-1.521,0.042s-0.444,0.041-0.574,0.041
			c-0.149,0-0.39,0-0.39-0.309c0-0.289,0.277-0.31,0.667-0.352c0.929-0.062,0.929-0.619,0.929-1.464V16.508z"/>
	</g>
	<path d="M276.021,27.457c-1.447,0-2.617-0.558-2.95-0.825c-0.204-0.165-0.223-0.453-0.223-0.969c0-0.082,0-1.113,0.056-1.855
		c0-0.083,0.018-0.371,0.241-0.371c0.166,0,0.223,0.164,0.259,0.35c0.354,1.836,1.615,3.135,2.933,3.135
		c0.779,0,2.209-0.619,2.209-2.289c0-1.608-1.263-2.391-2.599-3.072c-1.503-0.742-2.969-1.547-2.969-3.732
		c0-1.896,1.299-3.546,3.655-3.546c1.076,0,2.172,0.33,2.431,0.474c0.223,0.145,0.223,0.33,0.223,2.145c0,0.454,0,0.619-0.26,0.619
		c-0.186,0-0.259-0.124-0.444-0.763c-0.224-0.804-0.557-1.979-2.098-1.979c-1.521,0-2.022,1.176-2.022,1.979
		c0,1.464,1.076,1.979,2.561,2.66c1.039,0.494,2.987,1.505,2.987,3.836C280.01,25.538,278.488,27.457,276.021,27.457z"/>
	<path fill="#3F4B00" d="M24.393,13.16c1.708,2.249,2.722,5.052,2.722,8.093c0,7.398-5.998,13.396-13.396,13.396
		c-3.04,0-5.844-1.014-8.091-2.723c2.446,3.225,6.317,5.306,10.675,5.306c7.398,0,13.396-5.997,13.396-13.396
		C29.698,19.478,27.616,15.607,24.393,13.16"/>
	<path fill="#BBC09C" d="M26.015,24.11c-1.632,2.304-3.999,4.113-6.9,5.027c-7.056,2.226-14.58-1.691-16.804-8.748
		c-0.914-2.9-0.791-5.878,0.161-8.535c-2.338,3.302-3.158,7.619-1.849,11.775c2.226,7.058,9.748,10.974,16.805,8.748
		C21.585,31.069,24.65,27.919,26.015,24.11"/>
	<path fill="#838B52" d="M21.801,27.138c-2.804,0.335-5.734-0.211-8.357-1.75C7.064,21.641,4.929,13.432,8.677,7.051
		c1.539-2.623,3.832-4.526,6.443-5.601c-4.02,0.479-7.773,2.763-9.981,6.521c-3.746,6.38-1.61,14.587,4.77,18.333
		C13.666,28.513,18.059,28.678,21.801,27.138"/>
	<path fill="#CFD4B9" d="M13.001,23.106c-1.446-2.424-2.143-5.322-1.804-8.346c0.823-7.351,7.451-12.644,14.804-11.82
		c3.022,0.338,5.694,1.657,7.739,3.604c-2.073-3.476-5.688-5.975-10.02-6.46C16.369-0.739,9.741,4.553,8.918,11.906
		C8.432,16.238,10.071,20.317,13.001,23.106"/>
</g>
</svg>
